# xmcd
#
# Track frame offsets:
# 150
# 19099
# 37435
# 61639
# 80554
# 95493
# 113313
# 129107
# 145614
# 164825
# 181037
# 196561
# 216990
# 232445
# 247011
# 262820
# 279426
# 294520
# 313809
# 332994
#
# Disc length: 4684 seconds
#
#
# Revision: 3
# Processed by: cddbd v1.5.1PL0 Copyright (c) Steve Scherf et al.
# Submitted via: FreeRIP 2.91 
#
DISCID=22124a14
DTITLE=Barry White - All Time Greatest Hits
DYEAR=1995
DGENRE=Soul
TTITLE0=Love's Theme
TTITLE1=I'm Gonna Love You Just A Little More, Baby
TTITLE2=I've Got So Much To Give
TTITLE3=Never, Never Gonna Give You Up
TTITLE4=Honey Please, Can't Ya See
TTITLE5=Can't Get Enough Of Your Love, Babe
TTITLE6=You're The First, The Last, My Everything
TTITLE7=What Am I Gonna Do With You?
TTITLE8=I'll Do For You Anything You Want Me To
TTITLE9=Let The Music Play
TTITLE10=You See The Trouble With Me
TTITLE11=Baby, We Better Try To Get It Together
TTITLE12=Don't Make Me Wait Too Long
TTITLE13=I'm Qualified To Satisfy You
TTITLE14=It's Ecstasy When You Lay Down Next To Me
TTITLE15=Playing Your Game, Baby
TTITLE16=Oh, What A Night For Dancing
TTITLE17=Your Sweetness Is My Weakness
TTITLE18=Just The Way You Are
TTITLE19=Satin Soul
EXTD=
EXTT0=
EXTT1=
EXTT2=
EXTT3=
EXTT4=
EXTT5=
EXTT6=
EXTT7=
EXTT8=
EXTT9=
EXTT10=
EXTT11=
EXTT12=
EXTT13=
EXTT14=
EXTT15=
EXTT16=
EXTT17=
EXTT18=
EXTT19=
PLAYORDER=
